ISO-10303-21;
HEADER;
/* Generated by software containing ST-Developer
 * from STEP Tools, Inc. (www.steptools.com) 
 */
/* OPTION: using custom renumber hook */

FILE_DESCRIPTION(
/* description */ ('STEP AP242 Edition 2',
'CAx-IF Rec.Pracs.---Representation and Presentation of Product Manufa
cturing Information (PMI)---4.0---2014-10-13',
'CAx-IF Rec.Pracs.---3D Tessellated Geometry---0.4---2014-09-14','2;1',
'CAx-IF Rec.Pracs.---User Defined Attributes---1.5---2016-08-15'),
/* implementation_level */ '2;1');

FILE_NAME(
/* name */ 'Part Studio 2 - Part 2',
/* time_stamp */ '2026-10-08T02:56:47Z',
/* author */ (''),
/* organization */ (''),
/* preprocessor_version */ 'ST-DEVELOPER v20',
/* originating_system */ 'ONSHAPE BY PTC INC, 1.221',
/* authorisation */ '  ');

FILE_SCHEMA (('AP242_MANAGED_MODEL_BASED_3D_ENGINEERING_MIM_LF { 1 0 10303 442 3 1 4 }'));
ENDSEC;

DATA;
#10=SHAPE_REPRESENTATION_RELATIONSHIP('','',#430,#11);
#11=ADVANCED_BREP_SHAPE_REPRESENTATION('',(#428),#699);
#12=CONICAL_SURFACE('',#466,0.005,0.785398163397448);
#13=ELLIPSE('',#459,0.00141421356237309,0.001);
#14=ELLIPSE('',#460,0.00141421356237309,0.001);
#15=ELLIPSE('',#462,0.00141421356237309,0.001);
#16=ELLIPSE('',#464,0.00141421356237309,0.001);
#17=CIRCLE('',#439,0.0016);
#18=CIRCLE('',#440,0.0016);
#19=CIRCLE('',#442,0.0016);
#20=CIRCLE('',#443,0.0016);
#21=CIRCLE('',#445,0.0016);
#22=CIRCLE('',#446,0.0016);
#23=CIRCLE('',#448,0.005);
#24=CIRCLE('',#449,0.005);
#25=CIRCLE('',#451,0.0016);
#26=CIRCLE('',#452,0.0016);
#27=CIRCLE('',#456,0.006);
#28=CYLINDRICAL_SURFACE('',#438,0.0016);
#29=CYLINDRICAL_SURFACE('',#441,0.0016);
#30=CYLINDRICAL_SURFACE('',#444,0.0016);
#31=CYLINDRICAL_SURFACE('',#447,0.005);
#32=CYLINDRICAL_SURFACE('',#450,0.0016);
#33=CYLINDRICAL_SURFACE('',#458,0.001);
#34=CYLINDRICAL_SURFACE('',#461,0.001);
#35=CYLINDRICAL_SURFACE('',#463,0.001);
#36=CYLINDRICAL_SURFACE('',#465,0.001);
#37=ORIENTED_EDGE('',*,*,#139,.F.);
#38=ORIENTED_EDGE('',*,*,#140,.T.);
#39=ORIENTED_EDGE('',*,*,#141,.T.);
#40=ORIENTED_EDGE('',*,*,#142,.T.);
#41=ORIENTED_EDGE('',*,*,#143,.F.);
#42=ORIENTED_EDGE('',*,*,#144,.T.);
#43=ORIENTED_EDGE('',*,*,#139,.T.);
#44=ORIENTED_EDGE('',*,*,#145,.T.);
#45=ORIENTED_EDGE('',*,*,#146,.F.);
#46=ORIENTED_EDGE('',*,*,#147,.T.);
#47=ORIENTED_EDGE('',*,*,#143,.T.);
#48=ORIENTED_EDGE('',*,*,#148,.F.);
#49=ORIENTED_EDGE('',*,*,#149,.F.);
#50=ORIENTED_EDGE('',*,*,#150,.T.);
#51=ORIENTED_EDGE('',*,*,#151,.T.);
#52=ORIENTED_EDGE('',*,*,#152,.F.);
#53=ORIENTED_EDGE('',*,*,#153,.F.);
#54=ORIENTED_EDGE('',*,*,#154,.T.);
#55=ORIENTED_EDGE('',*,*,#149,.T.);
#56=ORIENTED_EDGE('',*,*,#155,.F.);
#57=ORIENTED_EDGE('',*,*,#156,.F.);
#58=ORIENTED_EDGE('',*,*,#157,.T.);
#59=ORIENTED_EDGE('',*,*,#153,.T.);
#60=ORIENTED_EDGE('',*,*,#158,.T.);
#61=ORIENTED_EDGE('',*,*,#159,.T.);
#62=ORIENTED_EDGE('',*,*,#160,.F.);
#63=ORIENTED_EDGE('',*,*,#161,.T.);
#64=ORIENTED_EDGE('',*,*,#162,.F.);
#65=ORIENTED_EDGE('',*,*,#163,.T.);
#66=ORIENTED_EDGE('',*,*,#164,.F.);
#67=ORIENTED_EDGE('',*,*,#165,.T.);
#68=ORIENTED_EDGE('',*,*,#166,.F.);
#69=ORIENTED_EDGE('',*,*,#167,.T.);
#70=ORIENTED_EDGE('',*,*,#168,.F.);
#71=ORIENTED_EDGE('',*,*,#151,.F.);
#72=ORIENTED_EDGE('',*,*,#169,.T.);
#73=ORIENTED_EDGE('',*,*,#156,.T.);
#74=ORIENTED_EDGE('',*,*,#170,.T.);
#75=ORIENTED_EDGE('',*,*,#141,.F.);
#76=ORIENTED_EDGE('',*,*,#171,.T.);
#77=ORIENTED_EDGE('',*,*,#146,.T.);
#78=ORIENTED_EDGE('',*,*,#172,.F.);
#79=ORIENTED_EDGE('',*,*,#173,.T.);
#80=ORIENTED_EDGE('',*,*,#174,.T.);
#81=ORIENTED_EDGE('',*,*,#175,.T.);
#82=ORIENTED_EDGE('',*,*,#176,.T.);
#83=ORIENTED_EDGE('',*,*,#177,.T.);
#84=ORIENTED_EDGE('',*,*,#178,.T.);
#85=ORIENTED_EDGE('',*,*,#179,.T.);
#86=ORIENTED_EDGE('',*,*,#180,.T.);
#87=ORIENTED_EDGE('',*,*,#181,.T.);
#88=ORIENTED_EDGE('',*,*,#167,.F.);
#89=ORIENTED_EDGE('',*,*,#163,.F.);
#90=ORIENTED_EDGE('',*,*,#161,.F.);
#91=ORIENTED_EDGE('',*,*,#159,.F.);
#92=ORIENTED_EDGE('',*,*,#152,.T.);
#93=ORIENTED_EDGE('',*,*,#170,.F.);
#94=ORIENTED_EDGE('',*,*,#158,.F.);
#95=ORIENTED_EDGE('',*,*,#155,.T.);
#96=ORIENTED_EDGE('',*,*,#168,.T.);
#97=ORIENTED_EDGE('',*,*,#166,.T.);
#98=ORIENTED_EDGE('',*,*,#164,.T.);
#99=ORIENTED_EDGE('',*,*,#162,.T.);
#100=ORIENTED_EDGE('',*,*,#160,.T.);
#101=ORIENTED_EDGE('',*,*,#142,.F.);
#102=ORIENTED_EDGE('',*,*,#172,.T.);
#103=ORIENTED_EDGE('',*,*,#148,.T.);
#104=ORIENTED_EDGE('',*,*,#145,.F.);
#105=ORIENTED_EDGE('',*,*,#182,.F.);
#106=ORIENTED_EDGE('',*,*,#150,.F.);
#107=ORIENTED_EDGE('',*,*,#183,.F.);
#108=ORIENTED_EDGE('',*,*,#181,.F.);
#109=ORIENTED_EDGE('',*,*,#183,.T.);
#110=ORIENTED_EDGE('',*,*,#154,.F.);
#111=ORIENTED_EDGE('',*,*,#184,.F.);
#112=ORIENTED_EDGE('',*,*,#178,.F.);
#113=ORIENTED_EDGE('',*,*,#182,.T.);
#114=ORIENTED_EDGE('',*,*,#180,.F.);
#115=ORIENTED_EDGE('',*,*,#185,.F.);
#116=ORIENTED_EDGE('',*,*,#169,.F.);
#117=ORIENTED_EDGE('',*,*,#184,.T.);
#118=ORIENTED_EDGE('',*,*,#157,.F.);
#119=ORIENTED_EDGE('',*,*,#185,.T.);
#120=ORIENTED_EDGE('',*,*,#179,.F.);
#121=ORIENTED_EDGE('',*,*,#173,.F.);
#122=ORIENTED_EDGE('',*,*,#165,.F.);
#123=ORIENTED_EDGE('',*,*,#186,.F.);
#124=ORIENTED_EDGE('',*,*,#177,.F.);
#125=ORIENTED_EDGE('',*,*,#187,.F.);
#126=ORIENTED_EDGE('',*,*,#144,.F.);
#127=ORIENTED_EDGE('',*,*,#187,.T.);
#128=ORIENTED_EDGE('',*,*,#176,.F.);
#129=ORIENTED_EDGE('',*,*,#188,.F.);
#130=ORIENTED_EDGE('',*,*,#140,.F.);
#131=ORIENTED_EDGE('',*,*,#186,.T.);
#132=ORIENTED_EDGE('',*,*,#147,.F.);
#133=ORIENTED_EDGE('',*,*,#189,.F.);
#134=ORIENTED_EDGE('',*,*,#174,.F.);
#135=ORIENTED_EDGE('',*,*,#188,.T.);
#136=ORIENTED_EDGE('',*,*,#175,.F.);
#137=ORIENTED_EDGE('',*,*,#189,.T.);
#138=ORIENTED_EDGE('',*,*,#171,.F.);
#139=EDGE_CURVE('',#190,#191,#225,.T.);
#140=EDGE_CURVE('',#190,#192,#226,.T.);
#141=EDGE_CURVE('',#192,#193,#227,.T.);
#142=EDGE_CURVE('',#193,#191,#228,.T.);
#143=EDGE_CURVE('',#194,#195,#229,.T.);
#144=EDGE_CURVE('',#194,#190,#230,.T.);
#145=EDGE_CURVE('',#191,#195,#231,.T.);
#146=EDGE_CURVE('',#196,#197,#232,.T.);
#147=EDGE_CURVE('',#196,#194,#233,.T.);
#148=EDGE_CURVE('',#197,#195,#234,.T.);
#149=EDGE_CURVE('',#198,#199,#235,.T.);
#150=EDGE_CURVE('',#198,#200,#236,.T.);
#151=EDGE_CURVE('',#200,#201,#237,.T.);
#152=EDGE_CURVE('',#199,#201,#238,.T.);
#153=EDGE_CURVE('',#202,#203,#239,.T.);
#154=EDGE_CURVE('',#202,#198,#240,.T.);
#155=EDGE_CURVE('',#203,#199,#241,.T.);
#156=EDGE_CURVE('',#204,#205,#242,.T.);
#157=EDGE_CURVE('',#204,#202,#243,.F.);
#158=EDGE_CURVE('',#203,#205,#244,.T.);
#159=EDGE_CURVE('',#206,#206,#17,.T.);
#160=EDGE_CURVE('',#207,#207,#18,.T.);
#161=EDGE_CURVE('',#208,#208,#19,.T.);
#162=EDGE_CURVE('',#209,#209,#20,.T.);
#163=EDGE_CURVE('',#210,#210,#21,.T.);
#164=EDGE_CURVE('',#211,#211,#22,.T.);
#165=EDGE_CURVE('',#212,#212,#23,.T.);
#166=EDGE_CURVE('',#213,#213,#24,.T.);
#167=EDGE_CURVE('',#214,#214,#25,.T.);
#168=EDGE_CURVE('',#215,#215,#26,.T.);
#169=EDGE_CURVE('',#200,#204,#245,.F.);
#170=EDGE_CURVE('',#205,#201,#246,.T.);
#171=EDGE_CURVE('',#192,#196,#247,.T.);
#172=EDGE_CURVE('',#193,#197,#248,.T.);
#173=EDGE_CURVE('',#216,#216,#27,.F.);
#174=EDGE_CURVE('',#217,#218,#249,.T.);
#175=EDGE_CURVE('',#218,#219,#250,.T.);
#176=EDGE_CURVE('',#219,#220,#251,.T.);
#177=EDGE_CURVE('',#220,#217,#252,.T.);
#178=EDGE_CURVE('',#221,#222,#253,.F.);
#179=EDGE_CURVE('',#222,#223,#254,.T.);
#180=EDGE_CURVE('',#223,#224,#255,.T.);
#181=EDGE_CURVE('',#224,#221,#256,.F.);
#182=EDGE_CURVE('',#200,#224,#13,.T.);
#183=EDGE_CURVE('',#221,#198,#14,.F.);
#184=EDGE_CURVE('',#222,#202,#15,.F.);
#185=EDGE_CURVE('',#204,#223,#16,.T.);
#186=EDGE_CURVE('',#217,#194,#257,.F.);
#187=EDGE_CURVE('',#190,#220,#258,.F.);
#188=EDGE_CURVE('',#192,#219,#259,.T.);
#189=EDGE_CURVE('',#218,#196,#260,.F.);
#190=VERTEX_POINT('',#590);
#191=VERTEX_POINT('',#591);
#192=VERTEX_POINT('',#593);
#193=VERTEX_POINT('',#595);
#194=VERTEX_POINT('',#599);
#195=VERTEX_POINT('',#600);
#196=VERTEX_POINT('',#605);
#197=VERTEX_POINT('',#606);
#198=VERTEX_POINT('',#611);
#199=VERTEX_POINT('',#612);
#200=VERTEX_POINT('',#614);
#201=VERTEX_POINT('',#616);
#202=VERTEX_POINT('',#620);
#203=VERTEX_POINT('',#621);
#204=VERTEX_POINT('',#626);
#205=VERTEX_POINT('',#627);
#206=VERTEX_POINT('',#632);
#207=VERTEX_POINT('',#634);
#208=VERTEX_POINT('',#637);
#209=VERTEX_POINT('',#639);
#210=VERTEX_POINT('',#642);
#211=VERTEX_POINT('',#644);
#212=VERTEX_POINT('',#647);
#213=VERTEX_POINT('',#649);
#214=VERTEX_POINT('',#652);
#215=VERTEX_POINT('',#654);
#216=VERTEX_POINT('',#663);
#217=VERTEX_POINT('',#665);
#218=VERTEX_POINT('',#666);
#219=VERTEX_POINT('',#668);
#220=VERTEX_POINT('',#670);
#221=VERTEX_POINT('',#673);
#222=VERTEX_POINT('',#674);
#223=VERTEX_POINT('',#676);
#224=VERTEX_POINT('',#678);
#225=LINE('',#589,#261);
#226=LINE('',#592,#262);
#227=LINE('',#594,#263);
#228=LINE('',#596,#264);
#229=LINE('',#598,#265);
#230=LINE('',#601,#266);
#231=LINE('',#602,#267);
#232=LINE('',#604,#268);
#233=LINE('',#607,#269);
#234=LINE('',#608,#270);
#235=LINE('',#610,#271);
#236=LINE('',#613,#272);
#237=LINE('',#615,#273);
#238=LINE('',#617,#274);
#239=LINE('',#619,#275);
#240=LINE('',#622,#276);
#241=LINE('',#623,#277);
#242=LINE('',#625,#278);
#243=LINE('',#628,#279);
#244=LINE('',#629,#280);
#245=LINE('',#656,#281);
#246=LINE('',#657,#282);
#247=LINE('',#659,#283);
#248=LINE('',#660,#284);
#249=LINE('',#664,#285);
#250=LINE('',#667,#286);
#251=LINE('',#669,#287);
#252=LINE('',#671,#288);
#253=LINE('',#672,#289);
#254=LINE('',#675,#290);
#255=LINE('',#677,#291);
#256=LINE('',#679,#292);
#257=LINE('',#691,#293);
#258=LINE('',#692,#294);
#259=LINE('',#694,#295);
#260=LINE('',#696,#296);
#261=VECTOR('',#475,1.);
#262=VECTOR('',#476,1.);
#263=VECTOR('',#477,1.);
#264=VECTOR('',#478,1.);
#265=VECTOR('',#481,1.);
#266=VECTOR('',#482,1.);
#267=VECTOR('',#483,1.);
#268=VECTOR('',#486,1.);
#269=VECTOR('',#487,1.);
#270=VECTOR('',#488,1.);
#271=VECTOR('',#491,1.);
#272=VECTOR('',#492,1.);
#273=VECTOR('',#493,1.);
#274=VECTOR('',#494,1.);
#275=VECTOR('',#497,1.);
#276=VECTOR('',#498,1.);
#277=VECTOR('',#499,1.);
#278=VECTOR('',#502,1.);
#279=VECTOR('',#503,1.);
#280=VECTOR('',#504,1.);
#281=VECTOR('',#537,1.);
#282=VECTOR('',#538,1.);
#283=VECTOR('',#541,1.);
#284=VECTOR('',#542,1.);
#285=VECTOR('',#547,1.);
#286=VECTOR('',#548,1.);
#287=VECTOR('',#549,1.);
#288=VECTOR('',#550,1.);
#289=VECTOR('',#551,1.);
#290=VECTOR('',#552,1.);
#291=VECTOR('',#553,1.);
#292=VECTOR('',#554,1.);
#293=VECTOR('',#577,1.);
#294=VECTOR('',#578,1.);
#295=VECTOR('',#581,1.);
#296=VECTOR('',#584,1.);
#297=EDGE_LOOP('',(#37,#38,#39,#40));
#298=EDGE_LOOP('',(#41,#42,#43,#44));
#299=EDGE_LOOP('',(#45,#46,#47,#48));
#300=EDGE_LOOP('',(#49,#50,#51,#52));
#301=EDGE_LOOP('',(#53,#54,#55,#56));
#302=EDGE_LOOP('',(#57,#58,#59,#60));
#303=EDGE_LOOP('',(#61));
#304=EDGE_LOOP('',(#62));
#305=EDGE_LOOP('',(#63));
#306=EDGE_LOOP('',(#64));
#307=EDGE_LOOP('',(#65));
#308=EDGE_LOOP('',(#66));
#309=EDGE_LOOP('',(#67));
#310=EDGE_LOOP('',(#68));
#311=EDGE_LOOP('',(#69));
#312=EDGE_LOOP('',(#70));
#313=EDGE_LOOP('',(#71,#72,#73,#74));
#314=EDGE_LOOP('',(#75,#76,#77,#78));
#315=EDGE_LOOP('',(#79));
#316=EDGE_LOOP('',(#80,#81,#82,#83));
#317=EDGE_LOOP('',(#84,#85,#86,#87));
#318=EDGE_LOOP('',(#88));
#319=EDGE_LOOP('',(#89));
#320=EDGE_LOOP('',(#90));
#321=EDGE_LOOP('',(#91));
#322=EDGE_LOOP('',(#92,#93,#94,#95));
#323=EDGE_LOOP('',(#96));
#324=EDGE_LOOP('',(#97));
#325=EDGE_LOOP('',(#98));
#326=EDGE_LOOP('',(#99));
#327=EDGE_LOOP('',(#100));
#328=EDGE_LOOP('',(#101,#102,#103,#104));
#329=EDGE_LOOP('',(#105,#106,#107,#108));
#330=EDGE_LOOP('',(#109,#110,#111,#112));
#331=EDGE_LOOP('',(#113,#114,#115,#116));
#332=EDGE_LOOP('',(#117,#118,#119,#120));
#333=EDGE_LOOP('',(#121));
#334=EDGE_LOOP('',(#122));
#335=EDGE_LOOP('',(#123,#124,#125,#126));
#336=EDGE_LOOP('',(#127,#128,#129,#130));
#337=EDGE_LOOP('',(#131,#132,#133,#134));
#338=EDGE_LOOP('',(#135,#136,#137,#138));
#339=FACE_BOUND('',#297,.T.);
#340=FACE_BOUND('',#298,.T.);
#341=FACE_BOUND('',#299,.T.);
#342=FACE_BOUND('',#300,.T.);
#343=FACE_BOUND('',#301,.T.);
#344=FACE_BOUND('',#302,.T.);
#345=FACE_BOUND('',#303,.T.);
#346=FACE_BOUND('',#304,.T.);
#347=FACE_BOUND('',#305,.T.);
#348=FACE_BOUND('',#306,.T.);
#349=FACE_BOUND('',#307,.T.);
#350=FACE_BOUND('',#308,.T.);
#351=FACE_BOUND('',#309,.T.);
#352=FACE_BOUND('',#310,.T.);
#353=FACE_BOUND('',#311,.T.);
#354=FACE_BOUND('',#312,.T.);
#355=FACE_BOUND('',#313,.T.);
#356=FACE_BOUND('',#314,.T.);
#357=FACE_BOUND('',#315,.T.);
#358=FACE_BOUND('',#316,.T.);
#359=FACE_BOUND('',#317,.T.);
#360=FACE_BOUND('',#318,.T.);
#361=FACE_BOUND('',#319,.T.);
#362=FACE_BOUND('',#320,.T.);
#363=FACE_BOUND('',#321,.T.);
#364=FACE_BOUND('',#322,.T.);
#365=FACE_BOUND('',#323,.T.);
#366=FACE_BOUND('',#324,.T.);
#367=FACE_BOUND('',#325,.T.);
#368=FACE_BOUND('',#326,.T.);
#369=FACE_BOUND('',#327,.T.);
#370=FACE_BOUND('',#328,.T.);
#371=FACE_BOUND('',#329,.T.);
#372=FACE_BOUND('',#330,.T.);
#373=FACE_BOUND('',#331,.T.);
#374=FACE_BOUND('',#332,.T.);
#375=FACE_BOUND('',#333,.T.);
#376=FACE_BOUND('',#334,.T.);
#377=FACE_BOUND('',#335,.T.);
#378=FACE_BOUND('',#336,.T.);
#379=FACE_BOUND('',#337,.T.);
#380=FACE_BOUND('',#338,.T.);
#381=PLANE('',#432);
#382=PLANE('',#433);
#383=PLANE('',#434);
#384=PLANE('',#435);
#385=PLANE('',#436);
#386=PLANE('',#437);
#387=PLANE('',#453);
#388=PLANE('',#454);
#389=PLANE('',#455);
#390=PLANE('',#457);
#391=PLANE('',#467);
#392=PLANE('',#468);
#393=PLANE('',#469);
#394=PLANE('',#470);
#395=ADVANCED_FACE('',(#339),#381,.F.);
#396=ADVANCED_FACE('',(#340),#382,.F.);
#397=ADVANCED_FACE('',(#341),#383,.T.);
#398=ADVANCED_FACE('',(#342),#384,.T.);
#399=ADVANCED_FACE('',(#343),#385,.T.);
#400=ADVANCED_FACE('',(#344),#386,.F.);
#401=ADVANCED_FACE('',(#345,#346),#28,.F.);
#402=ADVANCED_FACE('',(#347,#348),#29,.F.);
#403=ADVANCED_FACE('',(#349,#350),#30,.F.);
#404=ADVANCED_FACE('',(#351,#352),#31,.F.);
#405=ADVANCED_FACE('',(#353,#354),#32,.F.);
#406=ADVANCED_FACE('',(#355),#387,.F.);
#407=ADVANCED_FACE('',(#356),#388,.T.);
#408=ADVANCED_FACE('',(#357,#358,#359,#360,#361,#362,#363),#389,.T.);
#409=ADVANCED_FACE('',(#364,#365,#366,#367,#368,#369,#370),#390,.F.);
#410=ADVANCED_FACE('',(#371),#33,.T.);
#411=ADVANCED_FACE('',(#372),#34,.T.);
#412=ADVANCED_FACE('',(#373),#35,.T.);
#413=ADVANCED_FACE('',(#374),#36,.T.);
#414=ADVANCED_FACE('',(#375,#376),#12,.F.);
#415=ADVANCED_FACE('',(#377),#391,.T.);
#416=ADVANCED_FACE('',(#378),#392,.T.);
#417=ADVANCED_FACE('',(#379),#393,.F.);
#418=ADVANCED_FACE('',(#380),#394,.F.);
#419=CLOSED_SHELL('',(#395,#396,#397,#398,#399,#400,#401,#402,#403,#404,
#405,#406,#407,#408,#409,#410,#411,#412,#413,#414,#415,#416,#417,#418));
#420=STYLED_ITEM('',(#421),#428);
#421=PRESENTATION_STYLE_ASSIGNMENT((#422));
#422=SURFACE_STYLE_USAGE(.BOTH.,#423);
#423=SURFACE_SIDE_STYLE('',(#424));
#424=SURFACE_STYLE_FILL_AREA(#425);
#425=FILL_AREA_STYLE('',(#426));
#426=FILL_AREA_STYLE_COLOUR('',#427);
#427=COLOUR_RGB('',0.866666666666667,0.32156862745098,0.156862745098039);
#428=MANIFOLD_SOLID_BREP('Part 2',#419);
#429=SHAPE_DEFINITION_REPRESENTATION(#704,#430);
#430=SHAPE_REPRESENTATION('Part 2',(#431),#699);
#431=AXIS2_PLACEMENT_3D('',#587,#471,#472);
#432=AXIS2_PLACEMENT_3D('',#588,#473,#474);
#433=AXIS2_PLACEMENT_3D('',#597,#479,#480);
#434=AXIS2_PLACEMENT_3D('',#603,#484,#485);
#435=AXIS2_PLACEMENT_3D('',#609,#489,#490);
#436=AXIS2_PLACEMENT_3D('',#618,#495,#496);
#437=AXIS2_PLACEMENT_3D('',#624,#500,#501);
#438=AXIS2_PLACEMENT_3D('',#630,#505,#506);
#439=AXIS2_PLACEMENT_3D('',#631,#507,#508);
#440=AXIS2_PLACEMENT_3D('',#633,#509,#510);
#441=AXIS2_PLACEMENT_3D('',#635,#511,#512);
#442=AXIS2_PLACEMENT_3D('',#636,#513,#514);
#443=AXIS2_PLACEMENT_3D('',#638,#515,#516);
#444=AXIS2_PLACEMENT_3D('',#640,#517,#518);
#445=AXIS2_PLACEMENT_3D('',#641,#519,#520);
#446=AXIS2_PLACEMENT_3D('',#643,#521,#522);
#447=AXIS2_PLACEMENT_3D('',#645,#523,#524);
#448=AXIS2_PLACEMENT_3D('',#646,#525,#526);
#449=AXIS2_PLACEMENT_3D('',#648,#527,#528);
#450=AXIS2_PLACEMENT_3D('',#650,#529,#530);
#451=AXIS2_PLACEMENT_3D('',#651,#531,#532);
#452=AXIS2_PLACEMENT_3D('',#653,#533,#534);
#453=AXIS2_PLACEMENT_3D('',#655,#535,#536);
#454=AXIS2_PLACEMENT_3D('',#658,#539,#540);
#455=AXIS2_PLACEMENT_3D('',#661,#543,#544);
#456=AXIS2_PLACEMENT_3D('',#662,#545,#546);
#457=AXIS2_PLACEMENT_3D('',#680,#555,#556);
#458=AXIS2_PLACEMENT_3D('',#681,#557,#558);
#459=AXIS2_PLACEMENT_3D('',#682,#559,#560);
#460=AXIS2_PLACEMENT_3D('',#683,#561,#562);
#461=AXIS2_PLACEMENT_3D('',#684,#563,#564);
#462=AXIS2_PLACEMENT_3D('',#685,#565,#566);
#463=AXIS2_PLACEMENT_3D('',#686,#567,#568);
#464=AXIS2_PLACEMENT_3D('',#687,#569,#570);
#465=AXIS2_PLACEMENT_3D('',#688,#571,#572);
#466=AXIS2_PLACEMENT_3D('',#689,#573,#574);
#467=AXIS2_PLACEMENT_3D('',#690,#575,#576);
#468=AXIS2_PLACEMENT_3D('',#693,#579,#580);
#469=AXIS2_PLACEMENT_3D('',#695,#582,#583);
#470=AXIS2_PLACEMENT_3D('',#697,#585,#586);
#471=DIRECTION('',(0.,0.,1.));
#472=DIRECTION('',(1.,0.,0.));
#473=DIRECTION('',(0.,0.,-1.));
#474=DIRECTION('',(-1.,0.,0.));
#475=DIRECTION('',(0.,-1.,0.));
#476=DIRECTION('',(-1.,0.,0.));
#477=DIRECTION('',(0.,-1.,0.));
#478=DIRECTION('',(1.,0.,0.));
#479=DIRECTION('',(1.,0.,0.));
#480=DIRECTION('',(0.,0.,-1.));
#481=DIRECTION('',(0.,-1.,0.));
#482=DIRECTION('',(0.,0.,-1.));
#483=DIRECTION('',(0.,0.,1.));
#484=DIRECTION('',(0.,0.,-1.));
#485=DIRECTION('',(-1.,0.,0.));
#486=DIRECTION('',(0.,-1.,0.));
#487=DIRECTION('',(1.,0.,0.));
#488=DIRECTION('',(1.,0.,0.));
#489=DIRECTION('',(1.,0.,0.));
#490=DIRECTION('',(0.,0.,-1.));
#491=DIRECTION('',(0.,-1.,0.));
#492=DIRECTION('',(0.,0.,1.));
#493=DIRECTION('',(0.,-1.,0.));
#494=DIRECTION('',(0.,0.,1.));
#495=DIRECTION('',(0.,0.,-1.));
#496=DIRECTION('',(-1.,0.,0.));
#497=DIRECTION('',(0.,-1.,0.));
#498=DIRECTION('',(1.,0.,0.));
#499=DIRECTION('',(1.,0.,0.));
#500=DIRECTION('',(1.,0.,-4.97201406674894E-17));
#501=DIRECTION('',(-4.97201406674894E-17,0.,-1.));
#502=DIRECTION('',(0.,-1.,0.));
#503=DIRECTION('',(4.97201406674894E-17,0.,1.));
#504=DIRECTION('',(4.97201406674895E-17,0.,1.));
#505=DIRECTION('',(0.,-1.,0.));
#506=DIRECTION('',(0.,0.,-1.));
#507=DIRECTION('',(0.,1.,0.));
#508=DIRECTION('',(1.,0.,0.));
#509=DIRECTION('',(0.,1.,0.));
#510=DIRECTION('',(1.,0.,0.));
#511=DIRECTION('',(0.,-1.,0.));
#512=DIRECTION('',(0.,0.,-1.));
#513=DIRECTION('',(0.,1.,0.));
#514=DIRECTION('',(1.,0.,0.));
#515=DIRECTION('',(0.,1.,0.));
#516=DIRECTION('',(1.,0.,0.));
#517=DIRECTION('',(0.,-1.,0.));
#518=DIRECTION('',(0.,0.,-1.));
#519=DIRECTION('',(0.,1.,0.));
#520=DIRECTION('',(1.,0.,0.));
#521=DIRECTION('',(0.,1.,0.));
#522=DIRECTION('',(1.,0.,0.));
#523=DIRECTION('',(0.,-1.,0.));
#524=DIRECTION('',(0.,0.,-1.));
#525=DIRECTION('',(0.,1.,0.));
#526=DIRECTION('',(0.,0.,1.));
#527=DIRECTION('',(0.,1.,0.));
#528=DIRECTION('',(1.,0.,0.));
#529=DIRECTION('',(0.,-1.,0.));
#530=DIRECTION('',(0.,0.,-1.));
#531=DIRECTION('',(0.,1.,0.));
#532=DIRECTION('',(1.,0.,0.));
#533=DIRECTION('',(0.,1.,0.));
#534=DIRECTION('',(1.,0.,0.));
#535=DIRECTION('',(0.,0.,-1.));
#536=DIRECTION('',(-1.,0.,0.));
#537=DIRECTION('',(1.,0.,0.));
#538=DIRECTION('',(1.,0.,0.));
#539=DIRECTION('',(1.,0.,-4.47093679375465E-17));
#540=DIRECTION('',(-4.47093679375465E-17,0.,-1.));
#541=DIRECTION('',(4.47093679375465E-17,0.,1.));
#542=DIRECTION('',(4.47093679375465E-17,0.,1.));
#543=DIRECTION('',(0.,1.,0.));
#544=DIRECTION('',(1.,0.,0.));
#545=DIRECTION('',(0.,1.,0.));
#546=DIRECTION('',(0.,0.,1.));
#547=DIRECTION('',(-1.,0.,0.));
#548=DIRECTION('',(-4.47093679375465E-17,0.,-1.));
#549=DIRECTION('',(1.,0.,0.));
#550=DIRECTION('',(0.,0.,1.));
#551=DIRECTION('',(1.,0.,0.));
#552=DIRECTION('',(4.97201406674894E-17,0.,1.));
#553=DIRECTION('',(1.,0.,0.));
#554=DIRECTION('',(0.,0.,1.));
#555=DIRECTION('',(0.,1.,0.));
#556=DIRECTION('',(1.,0.,0.));
#557=DIRECTION('',(0.,0.,1.));
#558=DIRECTION('',(1.,0.,0.));
#559=DIRECTION('',(-0.707106781186548,0.,0.707106781186548));
#560=DIRECTION('',(0.707106781186548,0.,0.707106781186548));
#561=DIRECTION('',(0.707106781186548,0.,0.707106781186548));
#562=DIRECTION('',(-0.707106781186548,0.,0.707106781186548));
#563=DIRECTION('',(1.,0.,0.));
#564=DIRECTION('',(0.,0.,-1.));
#565=DIRECTION('',(0.707106781186548,0.,-0.707106781186548));
#566=DIRECTION('',(0.707106781186548,0.,0.707106781186548));
#567=DIRECTION('',(-1.,0.,0.));
#568=DIRECTION('',(0.,0.,1.));
#569=DIRECTION('',(-0.707106781186548,0.,-0.707106781186548));
#570=DIRECTION('',(-0.707106781186548,0.,0.707106781186548));
#571=DIRECTION('',(-4.97201406674894E-17,0.,-1.));
#572=DIRECTION('',(-1.,0.,4.97201406674894E-17));
#573=DIRECTION('',(0.,1.,0.));
#574=DIRECTION('',(0.,0.,1.));
#575=DIRECTION('',(-0.707106781186548,0.707106781186548,0.));
#576=DIRECTION('',(0.,0.,-1.));
#577=DIRECTION('',(0.577350269189626,0.577350269189626,0.577350269189626));
#578=DIRECTION('',(-0.577350269189626,-0.577350269189626,0.577350269189626));
#579=DIRECTION('',(0.,0.707106781186548,0.707106781186548));
#580=DIRECTION('',(-1.,0.,0.));
#581=DIRECTION('',(-0.577350269189625,0.577350269189626,-0.577350269189626));
#582=DIRECTION('',(0.,-0.707106781186548,0.707106781186548));
#583=DIRECTION('',(1.,0.,0.));
#584=DIRECTION('',(-0.577350269189625,0.577350269189626,0.577350269189626));
#585=DIRECTION('',(-0.707106781186548,-0.707106781186547,3.16142972512036E-17));
#586=DIRECTION('',(4.47093679375465E-17,0.,1.));
#587=CARTESIAN_POINT('',(0.,0.,0.));
#588=CARTESIAN_POINT('',(0.0450166300941369,0.036,-0.0346995079695343));
#589=CARTESIAN_POINT('',(0.0825166300941369,0.036,-0.0346995079695343));
#590=CARTESIAN_POINT('',(0.0825166300941369,0.035,-0.0346995079695343));
#591=CARTESIAN_POINT('',(0.0825166300941369,0.033,-0.0346995079695343));
#592=CARTESIAN_POINT('',(0.00751663009413689,0.035,-0.0346995079695343));
#593=CARTESIAN_POINT('',(0.00751663009413689,0.035,-0.0346995079695343));
#594=CARTESIAN_POINT('',(0.00751663009413689,0.036,-0.0346995079695343));
#595=CARTESIAN_POINT('',(0.00751663009413689,0.033,-0.0346995079695343));
#596=CARTESIAN_POINT('',(0.0450166300941369,0.033,-0.0346995079695343));
#597=CARTESIAN_POINT('',(0.0825166300941369,0.036,-0.0249995079695343));
#598=CARTESIAN_POINT('',(0.0825166300941369,0.036,-0.0152995079695343));
#599=CARTESIAN_POINT('',(0.0825166300941369,0.035,-0.0152995079695343));
#600=CARTESIAN_POINT('',(0.0825166300941369,0.033,-0.0152995079695343));
#601=CARTESIAN_POINT('',(0.0825166300941369,0.035,-0.0346995079695343));
#602=CARTESIAN_POINT('',(0.0825166300941369,0.033,-0.0249995079695343));
#603=CARTESIAN_POINT('',(0.0450166300941369,0.036,-0.0152995079695343));
#604=CARTESIAN_POINT('',(0.0075166300941369,0.036,-0.0152995079695343));
#605=CARTESIAN_POINT('',(0.0075166300941369,0.035,-0.0152995079695343));
#606=CARTESIAN_POINT('',(0.0075166300941369,0.033,-0.0152995079695343));
#607=CARTESIAN_POINT('',(0.0450166300941369,0.035,-0.0152995079695343));
#608=CARTESIAN_POINT('',(0.0450166300941369,0.033,-0.0152995079695343));
#609=CARTESIAN_POINT('',(0.0994766300941338,0.036,-0.0290297539847689));
#610=CARTESIAN_POINT('',(0.0994766300941338,0.036,-0.0639195079695377));
#611=CARTESIAN_POINT('',(0.0994766300941338,0.035,-0.0639195079695377));
#612=CARTESIAN_POINT('',(0.0994766300941338,0.033,-0.0639195079695377));
#613=CARTESIAN_POINT('',(0.0994766300941338,0.035,-0.0290297539847689));
#614=CARTESIAN_POINT('',(0.0994766300941338,0.035,0.00586));
#615=CARTESIAN_POINT('',(0.0994766300941338,0.036,0.00586));
#616=CARTESIAN_POINT('',(0.0994766300941338,0.033,0.00586));
#617=CARTESIAN_POINT('',(0.0994766300941338,0.033,-0.0290297539847689));
#618=CARTESIAN_POINT('',(0.0449766300941353,0.036,-0.0639195079695377));
#619=CARTESIAN_POINT('',(-0.00952336990586311,0.036,-0.0639195079695377));
#620=CARTESIAN_POINT('',(-0.00952336990586311,0.035,-0.0639195079695377));
#621=CARTESIAN_POINT('',(-0.00952336990586311,0.033,-0.0639195079695377));
#622=CARTESIAN_POINT('',(0.0449766300941353,0.035,-0.0639195079695377));
#623=CARTESIAN_POINT('',(0.0449766300941353,0.033,-0.0639195079695377));
#624=CARTESIAN_POINT('',(-0.00952336990586311,0.036,-0.0290297539847689));
#625=CARTESIAN_POINT('',(-0.00952336990586311,0.036,0.00586));
#626=CARTESIAN_POINT('',(-0.00952336990586311,0.035,0.00586));
#627=CARTESIAN_POINT('',(-0.00952336990586311,0.033,0.00586));
#628=CARTESIAN_POINT('',(-0.00952336990586311,0.035,-0.0639195079695377));
#629=CARTESIAN_POINT('',(-0.00952336990586311,0.033,-0.0290297539847689));
#630=CARTESIAN_POINT('',(-0.00492336990586311,0.036,-0.0593195079695377));
#631=CARTESIAN_POINT('',(-0.00492336990586311,0.036,-0.0593195079695377));
#632=CARTESIAN_POINT('',(-0.00332336990586311,0.036,-0.0593195079695377));
#633=CARTESIAN_POINT('',(-0.00492336990586311,0.033,-0.0593195079695377));
#634=CARTESIAN_POINT('',(-0.00332336990586311,0.033,-0.0593195079695377));
#635=CARTESIAN_POINT('',(0.0948766300941338,0.036,-0.0593195079695377));
#636=CARTESIAN_POINT('',(0.0948766300941338,0.036,-0.0593195079695377));
#637=CARTESIAN_POINT('',(0.0964766300941338,0.036,-0.0593195079695377));
#638=CARTESIAN_POINT('',(0.0948766300941338,0.033,-0.0593195079695377));
#639=CARTESIAN_POINT('',(0.0964766300941338,0.033,-0.0593195079695377));
#640=CARTESIAN_POINT('',(-0.00492336990586311,0.036,0.00126));
#641=CARTESIAN_POINT('',(-0.00492336990586311,0.036,0.00126));
#642=CARTESIAN_POINT('',(-0.00332336990586311,0.036,0.00126));
#643=CARTESIAN_POINT('',(-0.00492336990586311,0.033,0.00126));
#644=CARTESIAN_POINT('',(-0.00332336990586311,0.033,0.00126));
#645=CARTESIAN_POINT('',(0.0189766300941369,0.036,-0.0469195079695343));
#646=CARTESIAN_POINT('',(0.0189766300941369,0.035,-0.0469195079695343));
#647=CARTESIAN_POINT('',(0.0189766300941369,0.035,-0.0419195079695343));
#648=CARTESIAN_POINT('',(0.0189766300941369,0.033,-0.0469195079695343));
#649=CARTESIAN_POINT('',(0.0239766300941369,0.033,-0.0469195079695343));
#650=CARTESIAN_POINT('',(0.0948766300941338,0.036,0.00126));
#651=CARTESIAN_POINT('',(0.0948766300941338,0.036,0.00126));
#652=CARTESIAN_POINT('',(0.0964766300941338,0.036,0.00126));
#653=CARTESIAN_POINT('',(0.0948766300941338,0.033,0.00126));
#654=CARTESIAN_POINT('',(0.0964766300941338,0.033,0.00126));
#655=CARTESIAN_POINT('',(0.0449766300941353,0.036,0.00586));
#656=CARTESIAN_POINT('',(-0.00952336990586311,0.035,0.00586));
#657=CARTESIAN_POINT('',(0.0449766300941353,0.033,0.00586));
#658=CARTESIAN_POINT('',(0.00751663009413689,0.036,-0.0249995079695343));
#659=CARTESIAN_POINT('',(0.00751663009413689,0.035,-0.0249995079695343));
#660=CARTESIAN_POINT('',(0.00751663009413689,0.033,-0.0249995079695343));
#661=CARTESIAN_POINT('',(0.0449766300941353,0.036,-0.0290297539847689));
#662=CARTESIAN_POINT('',(0.0189766300941369,0.036,-0.0469195079695343));
#663=CARTESIAN_POINT('',(0.0189766300941369,0.036,-0.0409195079695343));
#664=CARTESIAN_POINT('',(0.0449766300941353,0.036,-0.0142995079695343));
#665=CARTESIAN_POINT('',(0.0835166300941369,0.036,-0.0142995079695343));
#666=CARTESIAN_POINT('',(0.0065166300941369,0.036,-0.0142995079695343));
#667=CARTESIAN_POINT('',(0.0065166300941369,0.036,-0.0290297539847689));
#668=CARTESIAN_POINT('',(0.0065166300941369,0.036,-0.0356995079695343));
#669=CARTESIAN_POINT('',(0.0825166300941369,0.036,-0.0356995079695343));
#670=CARTESIAN_POINT('',(0.0835166300941369,0.036,-0.0356995079695343));
#671=CARTESIAN_POINT('',(0.0835166300941369,0.036,-0.0152995079695343));
#672=CARTESIAN_POINT('',(0.0449766300941353,0.036,-0.0629195079695377));
#673=CARTESIAN_POINT('',(0.0984766300941338,0.036,-0.0629195079695377));
#674=CARTESIAN_POINT('',(-0.00852336990586312,0.036,-0.0629195079695377));
#675=CARTESIAN_POINT('',(-0.00852336990586312,0.036,0.00586));
#676=CARTESIAN_POINT('',(-0.00852336990586312,0.036,0.00486));
#677=CARTESIAN_POINT('',(0.0994766300941338,0.036,0.00486));
#678=CARTESIAN_POINT('',(0.0984766300941338,0.036,0.00486));
#679=CARTESIAN_POINT('',(0.0984766300941338,0.036,-0.0290297539847689));
#680=CARTESIAN_POINT('',(0.0449766300941353,0.033,-0.0290297539847689));
#681=CARTESIAN_POINT('',(0.0984766300941338,0.035,-0.0290297539847689));
#682=CARTESIAN_POINT('',(0.0984766300941338,0.035,0.00486));
#683=CARTESIAN_POINT('',(0.0984766300941338,0.035,-0.0629195079695377));
#684=CARTESIAN_POINT('',(0.0449766300941353,0.035,-0.0629195079695377));
#685=CARTESIAN_POINT('',(-0.00852336990586312,0.035,-0.0629195079695377));
#686=CARTESIAN_POINT('',(0.0449766300941353,0.035,0.00486));
#687=CARTESIAN_POINT('',(-0.00852336990586312,0.035,0.00486));
#688=CARTESIAN_POINT('',(-0.00852336990586312,0.035,-0.0290297539847689));
#689=CARTESIAN_POINT('',(0.0189766300941369,0.035,-0.0469195079695343));
#690=CARTESIAN_POINT('',(0.0835166300941369,0.036,-0.0290297539847689));
#691=CARTESIAN_POINT('',(0.0786065480890587,0.0310899179949219,-0.0192095899746124));
#692=CARTESIAN_POINT('',(0.0706699634274697,0.0231533333333328,-0.0228528413028671));
#693=CARTESIAN_POINT('',(0.0449766300941353,0.036,-0.0356995079695343));
#694=CARTESIAN_POINT('',(0.0107499634274702,0.0317666666666667,-0.031466174636201));
#695=CARTESIAN_POINT('',(0.0450166300941369,0.035,-0.0152995079695343));
#696=CARTESIAN_POINT('',(0.0107499634274702,0.0317666666666667,-0.0185328413028676));
#697=CARTESIAN_POINT('',(0.00751663009413689,0.035,-0.0249995079695343));
#698=MECHANICAL_DESIGN_GEOMETRIC_PRESENTATION_REPRESENTATION('',(#420),
#699);
#699=(
GEOMETRIC_REPRESENTATION_CONTEXT(3)
GLOBAL_UNCERTAINTY_ASSIGNED_CONTEXT((#700))
GLOBAL_UNIT_ASSIGNED_CONTEXT((#703,#702,#701))
REPRESENTATION_CONTEXT('Part 2','TOP_LEVEL_ASSEMBLY_PART')
);
#700=UNCERTAINTY_MEASURE_WITH_UNIT(LENGTH_MEASURE(1.E-8),#703,
'DISTANCE_ACCURACY_VALUE','Maximum Tolerance applied to model');
#701=(
NAMED_UNIT(*)
SI_UNIT($,.STERADIAN.)
SOLID_ANGLE_UNIT()
);
#702=(
NAMED_UNIT(*)
PLANE_ANGLE_UNIT()
SI_UNIT($,.RADIAN.)
);
#703=(
LENGTH_UNIT()
NAMED_UNIT(*)
SI_UNIT($,.METRE.)
);
#704=PRODUCT_DEFINITION_SHAPE('','',#705);
#705=PRODUCT_DEFINITION('','',#707,#706);
#706=PRODUCT_DEFINITION_CONTEXT('',#713,'design');
#707=PRODUCT_DEFINITION_FORMATION_WITH_SPECIFIED_SOURCE('','',#709,
 .NOT_KNOWN.);
#708=PRODUCT_RELATED_PRODUCT_CATEGORY('','',(#709));
#709=PRODUCT('Part 2','Part 2','Part 2',(#711));
#710=PRODUCT_CATEGORY('','');
#711=PRODUCT_CONTEXT('',#713,'mechanical');
#712=APPLICATION_PROTOCOL_DEFINITION('international standard',
'ap242_managed_model_based_3d_engineering',2020,#713);
#713=APPLICATION_CONTEXT('managed model based 3d engineering');
ENDSEC;
END-ISO-10303-21;
